nColumns=46
nRows=6
DataType=double
version=3
OpenSimVersion=4.5
endheader
time	ground_force_1_vx	ground_force_1_vy	ground_force_1_vz	ground_force_1_px	ground_force_1_py	ground_force_1_pz	ground_moment_1_mx	ground_moment_1_my	ground_moment_1_mz	ground_force_2_vx	ground_force_2_vy	ground_force_2_vz	ground_force_2_px	ground_force_2_py	ground_force_2_pz	ground_moment_2_mx	ground_moment_2_my	ground_moment_2_mz	ground_force_3_vx	ground_force_3_vy	ground_force_3_vz	ground_force_3_px	ground_force_3_py	ground_force_3_pz	ground_moment_3_mx	ground_moment_3_my	ground_moment_3_mz	ground_force_4_vx	ground_force_4_vy	ground_force_4_vz	ground_force_4_px	ground_force_4_py	ground_force_4_pz	ground_moment_4_mx	ground_moment_4_my	ground_moment_4_mz	ground_force_5_vx	ground_force_5_vy	ground_force_5_vz	ground_force_5_px	ground_force_5_py	ground_force_5_pz	ground_moment_5_mx	ground_moment_5_my	ground_moment_5_mz
2.156	2.035803336184469	48.90892972534857	-0.7897924224380405	374.087746250824	2.290626805231594e-14	-258.3309983787299	-2.953966502165062e-14	482.4193398817897	4.547473508864641e-13	-132.5041577854791	686.9994933867929	-27.11700453378398	924.5329077769891	5.661131331077424e-14	-182.843911624298	1.028309221596934e-13	-1679.356402699755	-6.296577983811959e-30	1.681721412751357	12.44607965054456	-1.140821776061784	1496.224735575381	9.161734166137425e-14	-240.3071997527346	5.142476931334641e-15	-83.98302163391165	-3.148858956824036e-31	0.4425582665135142	13.84845482243691	-4.124509498069528	544.8423174751027	3.336197000679553e-14	-628.3238674287334	-2.073331974715964e-14	338.6008073771962	1.269549683202883e-30	1.681721412751357	10.34251689270604	-5.528597837837879	1149.414226806215	7.038132268763306e-14	-667.9294659261387	-3.786719287834413e-14	618.4181905298531	2.318696827557979e-30
2.1565	2.389856090303507	49.25952351832166	0.08775471360422656	371.8356988414622	2.276836991974579e-14	-257.2261568812448	-2.786771882400848e-14	455.1143863424306	1.706405632868021e-30	-131.7960645590574	687.7006809727391	-26.23944932142876	924.7008893500879	5.66215992155648e-14	-182.9057014587874	9.874413178581644e-14	-1612.614050917635	-6.046334246304226e-30	2.566837945778388	14.19904861540999	-1.316332818532828	1494.786457115378	9.152927250575797e-14	-244.431933415903	2.067141816132855e-15	-33.75898777626463	-1.265759304255374e-31	0.7966048797243265	12.44607965054456	-4.124509498069528	548.7836271519374	3.360330562080473e-14	-613.0229987009157	-8.27355399328472e-16	245.5926088240407	5.066090707724468e-32	0.7966048797243265	9.991923099732958	-5.704108880308922	1160.147297367197	7.103853371300953e-14	-686.36503787961	-3.209598585266088e-14	524.1672272365772	1.965312316996994e-30
2.157	2.566882467363027	48.55833593237548	-0.08775471360422686	371.1160730515194	2.272430554873393e-14	-256.0692418895395	-3.428185764698699e-14	559.8652227051156	2.099158361810392e-30	-131.0879713326358	687.350087179766	-26.23944932142876	924.7135085232426	5.662237191706539e-14	-182.7094889326956	9.343475351658043e-14	-1525.905323586088	-5.721228591160107e-30	0.7966048797243265	13.84845482243691	-2.018376988417003	1506.568516382476	9.225071556419879e-14	-243.3316852454045	1.007308893133013e-14	-164.5060263635754	-6.167988058640041e-31	1.150651492935139	12.44607965054456	-4.65104262548266	545.3989470046175	3.339605373537709e-14	-623.4621580068198	7.509587522593869e-15	341.520868259648	-4.598296161230742e-31	0.7966048797243267	7.88836034189444	-5.528597837837879	1164.476688960352	7.130363249085016e-14	-704.4669215699682	-2.203956807798475e-14	359.933461522613	1.34953432506471e-30
2.1575	2.920935221482065	47.50655455345623	-0.4387735680211337	368.1972380807326	2.254557845352326e-14	-262.072693904819	-3.736896813838102e-14	610.281563049832	2.288189360905387e-30	-130.733924719425	688.4018685586852	-25.88842723648667	924.8073348149521	5.662811712045628e-14	-182.7816882993164	9.184314855233194e-14	-1499.912441959212	-5.623770894911409e-30	1.327674799540545	13.14726723649073	-1.316332818532828	1509.830980927965	9.245048390234704e-14	-243.085334882466	4.512657901223421e-15	-73.69729630396795	-2.763206027190138e-31	0.4425582665135143	11.3942982716253	-4.300020540540572	540.0499453752337	3.306852184917415e-14	-633.7444329385535	-1.826044658446978e-14	298.2157238672149	1.118129873033607e-30	1.504698106145951	7.537766548921354	-4.826553667953704	1145.73197064809	7.015584952674865e-14	-683.3544703764787	-2.604366455494943e-14	425.3253194812095	1.59471452176431e-30
2.158	2.920935221482065	47.50655455345623	-0.965301849646494	365.4923002673589	2.237994878177122e-14	-260.0602958094665	-2.148259972118097e-14	350.8374779754946	1.315429849295405e-30	-131.2649946392412	690.8560251094968	-26.76598244884189	924.607879681414	5.661590401591324e-14	-182.6588522871981	1.023267701057472e-13	-1671.122974836355	-6.265707573854521e-30	1.504698106145951	14.19904861540999	-2.193888030888047	1509.72028724175	9.244370586892162e-14	-255.9008030757301	5.196315102276378e-15	-84.8622656898994	-3.181825328681909e-31	0.08851165330270207	11.74489206459839	-4.300020540540572	534.5448311427507	3.27314308229866e-14	-635.5788262961718	-2.130781285866519e-14	347.9829918879553	1.304727240709757e-30	1.150651492935139	7.88836034189444	-5.002064710424747	1169.996490702516	7.164162286762358e-14	-687.9962479984307	-2.232958249445213e-14	364.669756373819	1.367292586406379e-30
2.1585	2.566882467363027	45.40299179561771	-0.4387735680211337	371.3412834191637	2.273809570652745e-14	-261.4005329071591	-2.459347436005946e-14	401.6419163008044	1.505915982747966e-30	-130.733924719425	693.6607754532815	-27.29251557625502	924.958340359518	5.663736354329659e-14	-183.00916900942	1.136889194505903e-13	-1856.680955353739	-6.961438565184335e-30	1.858744719356763	12.09548585757148	-1.491843861003872	1495.912694533862	9.15982346582393e-14	-260.179257763486	-2.333648481393479e-15	38.1113719158578	1.428947571536803e-31	0.08851165330270201	12.44607965054456	-4.475531583011616	555.552987446577	3.401780939166002e-14	-638.9657781233265	-1.404594472908147e-14	229.3876853123824	8.600660626735132e-31	0.6195815731189206	7.88836034189444	-5.002064710424747	1191.581993963869	7.296335374147365e-14	-683.9119536595064	-1.05513496653213e-14	172.3166168836201	6.460838297160115e-31
